# Blender v2.74 (sub 0) OBJ File: ''
# www.blender.org
mtllib cornellBoxMirrorTriangulated.mtl
o backWall.001
v -0.990000 0.000000 -1.040000
v 1.000000 0.000000 -1.040000
v 1.000000 1.990000 -1.040000
v -1.020000 1.990000 -1.040000
vn 0.000000 -0.000000 1.000000
usemtl backWall.001
s off
f 1//1 2//1 3//1
f 4//1 1//1 3//1
o floor.001
v -1.010000 -0.000000 0.990000
v 1.000000 -0.000000 0.990000
v 1.000000 0.000000 -1.040000
v -0.990000 0.000000 -1.040000
vn 0.000000 1.000000 0.000000
usemtl floor.001
s off
f 6//2 7//2 8//2
f 5//2 6//2 8//2
o shortBox
v -0.530000 1.200000 0.090000
v 0.040000 1.200000 -0.090000
v -0.140000 1.200000 -0.670000
v -0.710000 1.200000 -0.490000
v -0.530000 -0.000000 0.090000
v -0.530000 1.200000 0.090000
v -0.710000 1.200000 -0.490000
v -0.710000 0.000000 -0.490000
v -0.710000 0.000000 -0.490000
v -0.710000 1.200000 -0.490000
v -0.140000 1.200000 -0.670000
v -0.140000 0.000000 -0.670000
v -0.140000 0.000000 -0.670000
v -0.140000 1.200000 -0.670000
v 0.040000 1.200000 -0.090000
v 0.040000 0.000000 -0.090000
v 0.040000 0.000000 -0.090000
v 0.040000 1.200000 -0.090000
v -0.530000 1.200000 0.090000
v -0.530000 -0.000000 0.090000
vn 0.000000 1.000000 0.000000
vn -0.955100 0.000000 0.296400
vn -0.301100 0.000000 -0.953600
vn 0.955100 0.000000 -0.296400
vn 0.301100 -0.000000 0.953600
usemtl tallBox
s off
f 10//3 11//3 12//3
f 14//4 15//4 16//4
f 18//5 19//5 20//5
f 22//6 23//6 24//6
f 26//7 27//7 28//7
f 9//3 10//3 12//3
f 13//4 14//4 16//4
f 17//5 18//5 20//5
f 21//6 22//6 24//6
f 25//7 26//7 28//7
o light.001
v -0.240000 1.980000 0.160000
v -0.240000 1.980000 -0.220000
v 0.230000 1.980000 -0.220000
v 0.230000 1.980000 0.160000
vn 0.000000 -1.000000 0.000000
usemtl light.001
s off
f 30//8 31//8 32//8
f 29//8 30//8 32//8
o ceiling.001
v -1.020000 1.990000 0.990000
v -1.020000 1.990000 -1.040000
v 1.000000 1.990000 -1.040000
v 1.000000 1.990000 0.990000
vn 0.000000 -1.000000 0.000000
usemtl ceiling.001
s off
f 34//9 35//9 36//9
f 33//9 34//9 36//9
o leftWall.001
v -1.010000 -0.000000 0.990000
v -0.990000 0.000000 -1.040000
v -1.020000 1.990000 -1.040000
v -1.020000 1.990000 0.990000
v 0.530000 0.600000 0.750000
v 0.700000 0.600000 0.170000
v 0.130000 0.600000 0.000000
v -0.050000 0.600000 0.570000
v -0.050000 -0.000000 0.570000
v -0.050000 0.600000 0.570000
v 0.130000 0.600000 0.000000
v 0.130000 0.000000 0.000000
v 0.530000 -0.000000 0.750000
v 0.530000 0.600000 0.750000
v -0.050000 0.600000 0.570000
v -0.050000 -0.000000 0.570000
v 0.700000 -0.000000 0.170000
v 0.700000 0.600000 0.170000
v 0.530000 0.600000 0.750000
v 0.530000 -0.000000 0.750000
v 0.130000 0.000000 0.000000
v 0.130000 0.600000 0.000000
v 0.700000 0.600000 0.170000
v 0.700000 -0.000000 0.170000
vn -0.000000 1.000000 0.000000
vn -0.953600 0.000000 -0.301100
vn -0.296400 -0.000000 0.955100
vn 0.285800 0.000000 -0.958300
vn 0.959600 0.000000 0.281300
vn 0.999800 0.015100 0.009900
vn 1.000000 0.005000 0.000000
usemtl shortBox
s off
f 41//10 42//10 43//10
f 46//11 47//11 48//11
f 50//12 51//12 52//12
f 58//13 59//13 60//13
f 54//14 55//14 56//14
f 44//10 41//10 43//10
f 45//11 46//11 48//11
f 49//12 50//12 52//12
f 57//13 58//13 60//13
f 53//14 54//14 56//14
usemtl leftWall.001
f 37//15 38//15 39//15
f 40//16 37//16 39//16
o rightWall.001
v 1.000000 0.000000 -1.040000
v 1.000000 -0.000000 0.990000
v 1.000000 1.990000 0.990000
v 1.000000 1.990000 -1.040000
vn -1.000000 0.000000 0.000000
usemtl rightWall.001
s off
f 62//17 63//17 64//17
f 61//17 62//17 64//17
o backWall
v -0.990000 0.000000 -1.040000
v 1.000000 0.000000 -1.040000
v 1.000000 1.990000 -1.040000
v -1.020000 1.990000 -1.040000
vn 0.000000 -0.000000 1.000000
usemtl backWall
s off
f 65//18 66//18 67//18
f 68//18 65//18 67//18
o floor
v -1.010000 -0.000000 0.990000
v 1.000000 -0.000000 0.990000
v 1.000000 0.000000 -1.040000
v -0.990000 0.000000 -1.040000
vn 0.000000 1.000000 0.000000
usemtl floor
s off
f 70//19 71//19 72//19
f 69//19 70//19 72//19
o light
v -0.240000 1.980000 0.160000
v -0.240000 1.980000 -0.220000
v 0.230000 1.980000 -0.220000
v 0.230000 1.980000 0.160000
vn 0.000000 -1.000000 0.000000
usemtl light
s off
f 74//20 75//20 76//20
f 73//20 74//20 76//20
o ceiling
v -1.020000 1.990000 0.990000
v -1.020000 1.990000 -1.040000
v 1.000000 1.990000 -1.040000
v 1.000000 1.990000 0.990000
vn 0.000000 -1.000000 0.000000
usemtl ceiling
s off
f 78//21 79//21 80//21
f 77//21 78//21 80//21
o leftWall
v -1.010000 -0.000000 0.990000
v -0.990000 0.000000 -1.040000
v -1.020000 1.990000 -1.040000
v -1.020000 1.990000 0.990000
vn 0.999800 0.015100 0.009900
vn 1.000000 0.005000 0.000000
usemtl leftWall
s off
f 81//22 82//22 83//22
f 84//23 81//23 83//23
o rightWall
v 1.000000 0.000000 -1.040000
v 1.000000 -0.000000 0.990000
v 1.000000 1.990000 0.990000
v 1.000000 1.990000 -1.040000
vn -1.000000 0.000000 0.000000
usemtl rightWall
s off
f 86//24 87//24 88//24
f 85//24 86//24 88//24
