# Blender v2.74 (sub 0) OBJ File: ''
# www.blender.org
mtllib cornellBoxTriangulatedobj.mtl
o backWall
v -0.990000 0.000000 -1.040000
v 1.000000 0.000000 -1.040000
v 1.000000 1.990000 -1.040000
v -1.020000 1.990000 -1.040000
vn 0.000000 -0.000000 1.000000
usemtl backWall
s off
f 1//1 2//1 3//1
f 4//1 1//1 3//1
o floor
v -1.010000 -0.000000 0.990000
v 1.000000 -0.000000 0.990000
v 1.000000 0.000000 -1.040000
v -0.990000 0.000000 -1.040000
vn 0.000000 1.000000 0.000000
usemtl floor
s off
f 6//2 7//2 8//2
f 5//2 6//2 8//2
o light
v -0.240000 1.980000 0.160000
v -0.240000 1.980000 -0.220000
v 0.230000 1.980000 -0.220000
v 0.230000 1.980000 0.160000
vn 0.000000 -1.000000 0.000000
usemtl light
s off
f 10//3 11//3 12//3
f 9//3 10//3 12//3
o ceiling
v -1.020000 1.990000 0.990000
v -1.020000 1.990000 -1.040000
v 1.000000 1.990000 -1.040000
v 1.000000 1.990000 0.990000
vn 0.000000 -1.000000 0.000000
usemtl ceiling
s off
f 14//4 15//4 16//4
f 13//4 14//4 16//4
o leftWall
v -1.010000 -0.000000 0.990000
v -0.990000 0.000000 -1.040000
v -1.020000 1.990000 -1.040000
v -1.020000 1.990000 0.990000
vn 0.999800 0.015100 0.009900
vn 1.000000 0.005000 0.000000
usemtl leftWall
s off
f 17//5 18//5 19//5
f 20//6 17//6 19//6
o rightWall
v 1.000000 0.000000 -1.040000
v 1.000000 -0.000000 0.990000
v 1.000000 1.990000 0.990000
v 1.000000 1.990000 -1.040000
vn -1.000000 0.000000 0.000000
usemtl rightWall
s off
f 22//7 23//7 24//7
f 21//7 22//7 24//7
